{
  "accessors": [
    {
      "bufferView": 2,
      "componentType": 5126,
      "count": 65532,
      "max": [
        1.1793099641799927,
        9.5493459701538086,
        0.64726799726486206
      ],
      "min": [
        -0.93756699562072754,
        7.441953182220459,
        -0.52641898393630981
      ],
      "type": "VEC3"
    },
    {
      "bufferView": 2,
      "byteOffset": 786384,
      "componentType": 5126,
      "count": 65532,
      "max": [
        0.99998480081558228,
        0.99971741437911987,
        1
      ],
      "min": [
        -0.99927991628646851,
        -0.99995338916778564,
        -0.99998903274536133
      ],
      "type": "VEC3"
    },
    {
      "bufferView": 1,
      "componentType": 5126,
      "count": 65532,
      "max": [
        0.8124920129776001,
        1
      ],
      "min": [
        0,
        0
      ],
      "type": "VEC2"
    },
    {
      "bufferView": 0,
      "componentType": 5125,
      "count": 368673,
      "max": [
        65531
      ],
      "min": [
        0
      ],
      "type": "SCALAR"
    },
    {
      "bufferView": 2,
      "byteOffset": 1572768,
      "componentType": 5126,
      "count": 65532,
      "max": [
        0.76594102382659912,
        9.5803298950195312,
        0.64097100496292114
      ],
      "min": [
        -1.1387720108032227,
        7.4572339057922363,
        -0.52937901020050049
      ],
      "type": "VEC3"
    },
    {
      "bufferView": 2,
      "byteOffset": 2359152,
      "componentType": 5126,
      "count": 65532,
      "max": [
        0.99662703275680542,
        0.99991393089294434,
        0.99999517202377319
      ],
      "min": [
        -0.99998432397842407,
        -0.99976533651351929,
        -0.99999988079071045
      ],
      "type": "VEC3"
    },
    {
      "bufferView": 1,
      "byteOffset": 524256,
      "componentType": 5126,
      "count": 65532,
      "max": [
        0.92529898881912231,
        0.99963998794555664
      ],
      "min": [
        0.0024929998908191919,
        0
      ],
      "type": "VEC2"
    },
    {
      "bufferView": 0,
      "byteOffset": 1474692,
      "componentType": 5125,
      "count": 342516,
      "max": [
        65531
      ],
      "min": [
        0
      ],
      "type": "SCALAR"
    },
    {
      "bufferView": 2,
      "byteOffset": 3145536,
      "componentType": 5126,
      "count": 6067,
      "max": [
        -0.42918699979782104,
        9.576319694519043,
        0.56373202800750732
      ],
      "min": [
        -1.1342760324478149,
        8.541295051574707,
        -0.11657500267028809
      ],
      "type": "VEC3"
    },
    {
      "bufferView": 2,
      "byteOffset": 3218340,
      "componentType": 5126,
      "count": 6067,
      "max": [
        0.998432457447052,
        0.99935579299926758,
        0.99938219785690308
      ],
      "min": [
        -0.99995476007461548,
        -0.99842959642410278,
        -0.99992936849594116
      ],
      "type": "VEC3"
    },
    {
      "bufferView": 1,
      "byteOffset": 1048512,
      "componentType": 5126,
      "count": 6067,
      "max": [
        0.93068099021911621,
        0.92808300256729126
      ],
      "min": [
        0.047632001340389252,
        0.035147998481988907
      ],
      "type": "VEC2"
    },
    {
      "bufferView": 0,
      "byteOffset": 2844756,
      "componentType": 5125,
      "count": 21567,
      "max": [
        6066
      ],
      "min": [
        0
      ],
      "type": "SCALAR"
    }
  ],
  "asset": {
    "extras": {
      "author": "Digital Atlas of Ancient Life (https://sketchfab.com/DigitalAtlasOfAncientLife)",
      "license": "CC0-1.0 (http://creativecommons.org/publicdomain/zero/1.0/)",
      "source": "https://sketchfab.com/3d-models/foraminifera-fusulina-sp-pri-49886-960ac3f9ee754d3a889ad9579c922ff7",
      "title": "Foraminifera: Fusulina sp. (PRI 49886)"
    },
    "generator": "Sketchfab-7.80.0",
    "version": "2.0"
  },
  "bufferViews": [
    {
      "buffer": 0,
      "byteLength": 2931024,
      "byteOffset": 0,
      "name": "floatBufferViews",
      "target": 34963
    },
    {
      "buffer": 0,
      "byteLength": 1097048,
      "byteOffset": 2931024,
      "byteStride": 8,
      "name": "floatBufferViews",
      "target": 34962
    },
    {
      "buffer": 0,
      "byteLength": 3291144,
      "byteOffset": 4028072,
      "byteStride": 12,
      "name": "floatBufferViews",
      "target": 34962
    }
  ],
  "buffers": [
    {
      "byteLength": 7319216,
      "uri": "scene.bin"
    }
  ],
  "extensionsUsed": [
    "KHR_materials_unlit"
  ],
  "images": [
    {
      "uri": "textures/PRI_Fusulinasp_baseColor.jpeg"
    }
  ],
  "materials": [
    {
      "doubleSided": true,
      "emissiveFactor": [
        0,
        0,
        0
      ],
      "extensions": {
        "KHR_materials_unlit": {}
      },
      "name": "PRI_Fusulinasp",
      "pbrMetallicRoughness": {
        "baseColorFactor": [
          1,
          1,
          1,
          1
        ],
        "baseColorTexture": {
          "index": 0,
          "texCoord": 0
        },
        "metallicFactor": 0,
        "roughnessFactor": 1
      }
    }
  ],
  "meshes": [
    {
      "primitives": [
        {
          "attributes": {
            "NORMAL": 1,
            "POSITION": 0,
            "TEXCOORD_0": 2
          },
          "indices": 3,
          "material": 0,
          "mode": 4
        }
      ]
    },
    {
      "primitives": [
        {
          "attributes": {
            "NORMAL": 5,
            "POSITION": 4,
            "TEXCOORD_0": 6
          },
          "indices": 7,
          "material": 0,
          "mode": 4
        }
      ]
    },
    {
      "primitives": [
        {
          "attributes": {
            "NORMAL": 9,
            "POSITION": 8,
            "TEXCOORD_0": 10
          },
          "indices": 11,
          "material": 0,
          "mode": 4
        }
      ]
    }
  ],
  "nodes": [
    {
      "children": [
        1
      ],
      "name": "RootNode (gltf orientation matrix)",
      "rotation": [
        -0.70710678118654746,
        -0,
        -0,
        0.70710678118654757
      ]
    },
    {
      "children": [
        2
      ],
      "matrix": [
        0.041343569755554199,
        -5.5511151231257827e-17,
        0.99914497137069702,
        0,
        -0.86504590511322021,
        0.50041413307189941,
        0.035794690251350403,
        0,
        -0.49998626112937927,
        -0.86578619480133057,
        0.020688906311988831,
        0,
        7.4114303588867188,
        4.3030776977539062,
        -0.26718235015869141,
        1
      ],
      "name": "RootNode (model correction matrix)"
    },
    {
      "children": [
        3,
        4,
        5
      ],
      "name": "PRI_Fusulinasp.obj.cleaner.materialmerger.gles"
    },
    {
      "mesh": 0,
      "name": ""
    },
    {
      "mesh": 1,
      "name": ""
    },
    {
      "mesh": 2,
      "name": ""
    }
  ],
  "samplers": [
    {
      "magFilter": 9729,
      "minFilter": 9987,
      "wrapS": 10497,
      "wrapT": 10497
    }
  ],
  "scene": 0,
  "scenes": [
    {
      "name": "OSG_Scene",
      "nodes": [
        0
      ]
    }
  ],
  "textures": [
    {
      "sampler": 0,
      "source": 0
    }
  ]
}

