{
  "accessors": [
    {
      "bufferView": 2,
      "componentType": 5126,
      "count": 3538,
      "max": [
        11.001799583435059,
        15.277199745178223,
        6.304999828338623
      ],
      "min": [
        -11.001799583435059,
        -15.277199745178223,
        -5.9379000663757324
      ],
      "type": "VEC3"
    },
    {
      "bufferView": 2,
      "byteOffset": 42456,
      "componentType": 5126,
      "count": 3538,
      "max": [
        1,
        1,
        1
      ],
      "min": [
        -1,
        -1,
        -1
      ],
      "type": "VEC3"
    },
    {
      "bufferView": 1,
      "componentType": 5126,
      "count": 3538,
      "max": [
        0.99459999799728394,
        0.99739998579025269
      ],
      "min": [
        0.0057000000961124897,
        0.0041000000201165676
      ],
      "type": "VEC2"
    },
    {
      "bufferView": 0,
      "componentType": 5125,
      "count": 9513,
      "max": [
        3537
      ],
      "min": [
        0
      ],
      "type": "SCALAR"
    },
    {
      "bufferView": 2,
      "byteOffset": 84912,
      "componentType": 5126,
      "count": 2789,
      "max": [
        11.001799583435059,
        15.277199745178223,
        6.304999828338623
      ],
      "min": [
        -11.001799583435059,
        -15.277199745178223,
        -6.304999828338623
      ],
      "type": "VEC3"
    },
    {
      "bufferView": 2,
      "byteOffset": 118380,
      "componentType": 5126,
      "count": 2789,
      "max": [
        1,
        1,
        1
      ],
      "min": [
        -1,
        -1,
        -1
      ],
      "type": "VEC3"
    },
    {
      "bufferView": 1,
      "byteOffset": 28304,
      "componentType": 5126,
      "count": 2789,
      "max": [
        0.99800002574920654,
        0.99589997529983521
      ],
      "min": [
        0.0031999999191612005,
        0.0034000000450760126
      ],
      "type": "VEC2"
    },
    {
      "bufferView": 0,
      "byteOffset": 38052,
      "componentType": 5125,
      "count": 8436,
      "max": [
        2788
      ],
      "min": [
        0
      ],
      "type": "SCALAR"
    }
  ],
  "asset": {
    "extras": {
      "author": "techno-science3d (https://sketchfab.com/technoscience3d)",
      "license": "CC0-1.0 (http://creativecommons.org/publicdomain/zero/1.0/)",
      "source": "https://sketchfab.com/3d-models/sopwith-triplane-first-world-war-airplane-5372ad9628f546bf9b39fa797a503881",
      "title": "Sopwith Triplane - First World War Airplane"
    },
    "generator": "Sketchfab-7.80.0",
    "version": "2.0"
  },
  "bufferViews": [
    {
      "buffer": 0,
      "byteLength": 71796,
      "byteOffset": 0,
      "name": "floatBufferViews",
      "target": 34963
    },
    {
      "buffer": 0,
      "byteLength": 50616,
      "byteOffset": 71796,
      "byteStride": 8,
      "name": "floatBufferViews",
      "target": 34962
    },
    {
      "buffer": 0,
      "byteLength": 151848,
      "byteOffset": 122412,
      "byteStride": 12,
      "name": "floatBufferViews",
      "target": 34962
    }
  ],
  "buffers": [
    {
      "byteLength": 274260,
      "uri": "scene.bin"
    }
  ],
  "materials": [
    {
      "doubleSided": true,
      "emissiveFactor": [
        0,
        0,
        0
      ],
      "name": "Scene_-_Root",
      "pbrMetallicRoughness": {
        "baseColorFactor": [
          1,
          1,
          1,
          1
        ],
        "metallicFactor": 0,
        "roughnessFactor": 0.20000000000000001
      }
    }
  ],
  "meshes": [
    {
      "primitives": [
        {
          "attributes": {
            "NORMAL": 1,
            "POSITION": 0,
            "TEXCOORD_0": 2
          },
          "indices": 3,
          "material": 0,
          "mode": 4
        }
      ]
    },
    {
      "primitives": [
        {
          "attributes": {
            "NORMAL": 5,
            "POSITION": 4,
            "TEXCOORD_0": 6
          },
          "indices": 7,
          "material": 0,
          "mode": 4
        }
      ]
    }
  ],
  "nodes": [
    {
      "children": [
        1
      ],
      "name": "RootNode (gltf orientation matrix)",
      "rotation": [
        -0.70710678118654746,
        -0,
        -0,
        0.70710678118654757
      ]
    },
    {
      "children": [
        2
      ],
      "name": "RootNode (model correction matrix)"
    },
    {
      "children": [
        3,
        4
      ],
      "name": "Sopwith triplane.obj.cleaner.materialmerger.gles"
    },
    {
      "mesh": 0,
      "name": ""
    },
    {
      "mesh": 1,
      "name": ""
    }
  ],
  "scene": 0,
  "scenes": [
    {
      "name": "OSG_Scene",
      "nodes": [
        0
      ]
    }
  ]
}

