{
  "accessors": [
    {
      "bufferView": 2,
      "componentType": 5126,
      "count": 65532,
      "max": [
        0.51565301418304443,
        8.2087736129760742,
        0.58556699752807617
      ],
      "min": [
        -0.55920398235321045,
        6.8810830116271973,
        -0.51114201545715332
      ],
      "type": "VEC3"
    },
    {
      "bufferView": 2,
      "byteOffset": 786384,
      "componentType": 5126,
      "count": 65532,
      "max": [
        0.99999308586120605,
        0.99989837408065796,
        0.9999697208404541
      ],
      "min": [
        -0.99981784820556641,
        -0.99993830919265747,
        -0.99996674060821533
      ],
      "type": "VEC3"
    },
    {
      "bufferView": 1,
      "componentType": 5126,
      "count": 65532,
      "max": [
        0.99993997812271118,
        0.90157198905944824
      ],
      "min": [
        0,
        1.9999999494757503e-05
      ],
      "type": "VEC2"
    },
    {
      "bufferView": 0,
      "componentType": 5125,
      "count": 365457,
      "max": [
        65531
      ],
      "min": [
        0
      ],
      "type": "SCALAR"
    },
    {
      "bufferView": 2,
      "byteOffset": 1572768,
      "componentType": 5126,
      "count": 40668,
      "max": [
        0.46222400665283203,
        8.3012475967407227,
        0.58461898565292358
      ],
      "min": [
        -0.55936098098754883,
        7.1965060234069824,
        -0.4524649977684021
      ],
      "type": "VEC3"
    },
    {
      "bufferView": 2,
      "byteOffset": 2060784,
      "componentType": 5126,
      "count": 40668,
      "max": [
        0.99999308586120605,
        0.99989837408065796,
        0.99986022710800171
      ],
      "min": [
        -0.99991989135742188,
        -0.99996304512023926,
        -0.99982178211212158
      ],
      "type": "VEC3"
    },
    {
      "bufferView": 1,
      "byteOffset": 524256,
      "componentType": 5126,
      "count": 40668,
      "max": [
        0.99967902898788452,
        0.90111202001571655
      ],
      "min": [
        0.0034370000939816236,
        0.016966000199317932
      ],
      "type": "VEC2"
    },
    {
      "bufferView": 0,
      "byteOffset": 1461828,
      "componentType": 5125,
      "count": 202815,
      "max": [
        40667
      ],
      "min": [
        0
      ],
      "type": "SCALAR"
    }
  ],
  "asset": {
    "extras": {
      "author": "Digital Atlas of Ancient Life (https://sketchfab.com/DigitalAtlasOfAncientLife)",
      "license": "CC0-1.0 (http://creativecommons.org/publicdomain/zero/1.0/)",
      "source": "https://sketchfab.com/3d-models/barnacles-pri-78788-4eca9d30ac1645edaf3fd1e45753ea93",
      "title": "Barnacles (PRI 78788)"
    },
    "generator": "Sketchfab-7.80.0",
    "version": "2.0"
  },
  "bufferViews": [
    {
      "buffer": 0,
      "byteLength": 2273088,
      "byteOffset": 0,
      "name": "floatBufferViews",
      "target": 34963
    },
    {
      "buffer": 0,
      "byteLength": 849600,
      "byteOffset": 2273088,
      "byteStride": 8,
      "name": "floatBufferViews",
      "target": 34962
    },
    {
      "buffer": 0,
      "byteLength": 2548800,
      "byteOffset": 3122688,
      "byteStride": 12,
      "name": "floatBufferViews",
      "target": 34962
    }
  ],
  "buffers": [
    {
      "byteLength": 5671488,
      "uri": "scene.bin"
    }
  ],
  "extensionsUsed": [
    "KHR_materials_unlit"
  ],
  "images": [
    {
      "uri": "textures/PRI_Barnacle_baseColor.jpeg"
    }
  ],
  "materials": [
    {
      "doubleSided": true,
      "emissiveFactor": [
        0,
        0,
        0
      ],
      "extensions": {
        "KHR_materials_unlit": {}
      },
      "name": "PRI_Barnacle",
      "pbrMetallicRoughness": {
        "baseColorFactor": [
          1,
          1,
          1,
          1
        ],
        "baseColorTexture": {
          "index": 0,
          "texCoord": 0
        },
        "metallicFactor": 0,
        "roughnessFactor": 1
      }
    }
  ],
  "meshes": [
    {
      "primitives": [
        {
          "attributes": {
            "NORMAL": 1,
            "POSITION": 0,
            "TEXCOORD_0": 2
          },
          "indices": 3,
          "material": 0,
          "mode": 4
        }
      ]
    },
    {
      "primitives": [
        {
          "attributes": {
            "NORMAL": 5,
            "POSITION": 4,
            "TEXCOORD_0": 6
          },
          "indices": 7,
          "material": 0,
          "mode": 4
        }
      ]
    }
  ],
  "nodes": [
    {
      "children": [
        1
      ],
      "name": "RootNode (gltf orientation matrix)",
      "rotation": [
        -0.70710678118654746,
        -0,
        -0,
        0.70710678118654757
      ]
    },
    {
      "children": [
        2
      ],
      "matrix": [
        0.27806684374809265,
        -0.18691363930702209,
        -0.94220066070556641,
        0,
        -0.83916538953781128,
        0.43003806471824646,
        -0.33296948671340942,
        0,
        0.46741870045661926,
        0.88324999809265137,
        -0.037272121757268906,
        0,
        6.337069034576416,
        4.2897205352783203,
        2.5456335544586182,
        1
      ],
      "name": "RootNode (model correction matrix)"
    },
    {
      "children": [
        3,
        4
      ],
      "name": "PRI_Barnacle.obj.cleaner.materialmerger.gles"
    },
    {
      "mesh": 0,
      "name": ""
    },
    {
      "mesh": 1,
      "name": ""
    }
  ],
  "samplers": [
    {
      "magFilter": 9729,
      "minFilter": 9987,
      "wrapS": 10497,
      "wrapT": 10497
    }
  ],
  "scene": 0,
  "scenes": [
    {
      "name": "OSG_Scene",
      "nodes": [
        0
      ]
    }
  ],
  "textures": [
    {
      "sampler": 0,
      "source": 0
    }
  ]
}

