{
  "accessors": [
    {
      "bufferView": 1,
      "componentType": 5126,
      "count": 698,
      "max": [
        1.7695770263671875,
        -0.16809329390525818,
        -1.4618250131607056
      ],
      "min": [
        -0.77238106727600098,
        -2.4880952835083008,
        -2.6072683334350586
      ],
      "type": "VEC3"
    },
    {
      "bufferView": 1,
      "byteOffset": 8376,
      "componentType": 5126,
      "count": 698,
      "max": [
        0.99939626455307007,
        0.99995291233062744,
        0.99641674757003784
      ],
      "min": [
        -0.99939620494842529,
        -0.9998098611831665,
        -0.99564450979232788
      ],
      "type": "VEC3"
    },
    {
      "bufferView": 2,
      "componentType": 5126,
      "count": 698,
      "max": [
        0.67450982332229614,
        0.71764707565307617,
        0.68627452850341797,
        1
      ],
      "min": [
        0.086274512112140656,
        0.11764705926179886,
        0.086274512112140656,
        1
      ],
      "type": "VEC4"
    },
    {
      "bufferView": 0,
      "componentType": 5125,
      "count": 2808,
      "max": [
        697
      ],
      "min": [
        0
      ],
      "type": "SCALAR"
    },
    {
      "bufferView": 1,
      "byteOffset": 16752,
      "componentType": 5126,
      "count": 65532,
      "max": [
        12.81974983215332,
        12.19066333770752,
        1.4375189542770386
      ],
      "min": [
        -12.572449684143066,
        -13.662792205810547,
        -3.3195977210998535
      ],
      "type": "VEC3"
    },
    {
      "bufferView": 1,
      "byteOffset": 803136,
      "componentType": 5126,
      "count": 65532,
      "max": [
        0.99770438671112061,
        0.99933844804763794,
        0.99999922513961792
      ],
      "min": [
        -0.99758774042129517,
        -0.99931162595748901,
        -0.99999916553497314
      ],
      "type": "VEC3"
    },
    {
      "bufferView": 2,
      "byteOffset": 11168,
      "componentType": 5126,
      "count": 65532,
      "max": [
        0.97254902124404907,
        0.93333333730697632,
        0.88235294818878174,
        1
      ],
      "min": [
        0.039215687662363052,
        0.066666670143604279,
        0.035294119268655777,
        1
      ],
      "type": "VEC4"
    },
    {
      "bufferView": 0,
      "byteOffset": 11232,
      "componentType": 5125,
      "count": 303729,
      "max": [
        65531
      ],
      "min": [
        0
      ],
      "type": "SCALAR"
    },
    {
      "bufferView": 1,
      "byteOffset": 1589520,
      "componentType": 5126,
      "count": 65532,
      "max": [
        11.859354972839355,
        7.0913581848144531,
        1.4445466995239258
      ],
      "min": [
        -9.6886701583862305,
        -13.415484428405762,
        -2.7739284038543701
      ],
      "type": "VEC3"
    },
    {
      "bufferView": 1,
      "byteOffset": 2375904,
      "componentType": 5126,
      "count": 65532,
      "max": [
        0.92306739091873169,
        0.91562610864639282,
        0.99999672174453735
      ],
      "min": [
        -0.95912688970565796,
        -0.99884629249572754,
        -0.9999995231628418
      ],
      "type": "VEC3"
    },
    {
      "bufferView": 2,
      "byteOffset": 1059680,
      "componentType": 5126,
      "count": 65532,
      "max": [
        0.97647058963775635,
        0.93725490570068359,
        0.88627451658248901,
        1
      ],
      "min": [
        0.015686275437474251,
        0.043137256056070328,
        0.011764706112444401,
        1
      ],
      "type": "VEC4"
    },
    {
      "bufferView": 0,
      "byteOffset": 1226148,
      "componentType": 5125,
      "count": 307050,
      "max": [
        65531
      ],
      "min": [
        0
      ],
      "type": "SCALAR"
    },
    {
      "bufferView": 1,
      "byteOffset": 3162288,
      "componentType": 5126,
      "count": 65532,
      "max": [
        6.5890402793884277,
        5.5268130302429199,
        1.4906744956970215
      ],
      "min": [
        -11.55814266204834,
        -13.598055839538574,
        -2.034419059753418
      ],
      "type": "VEC3"
    },
    {
      "bufferView": 1,
      "byteOffset": 3948672,
      "componentType": 5126,
      "count": 65532,
      "max": [
        0.8321564793586731,
        0.64563757181167603,
        0.9999995231628418
      ],
      "min": [
        -0.96135646104812622,
        -0.9962913990020752,
        -0.99999934434890747
      ],
      "type": "VEC3"
    },
    {
      "bufferView": 2,
      "byteOffset": 2108192,
      "componentType": 5126,
      "count": 65532,
      "max": [
        0.97647058963775635,
        0.93725490570068359,
        0.88235294818878174,
        1
      ],
      "min": [
        0,
        0.011764706112444401,
        0,
        1
      ],
      "type": "VEC4"
    },
    {
      "bufferView": 0,
      "byteOffset": 2454348,
      "componentType": 5125,
      "count": 339192,
      "max": [
        65531
      ],
      "min": [
        0
      ],
      "type": "SCALAR"
    },
    {
      "bufferView": 1,
      "byteOffset": 4735056,
      "componentType": 5126,
      "count": 65532,
      "max": [
        12.070862770080566,
        11.364974021911621,
        1.3782861232757568
      ],
      "min": [
        -9.1300125122070312,
        -13.865500450134277,
        -2.5871851444244385
      ],
      "type": "VEC3"
    },
    {
      "bufferView": 1,
      "byteOffset": 5521440,
      "componentType": 5126,
      "count": 65532,
      "max": [
        0.82247936725616455,
        0.99968671798706055,
        0.99999970197677612
      ],
      "min": [
        -0.86108386516571045,
        -0.99739307165145874,
        -0.99999886751174927
      ],
      "type": "VEC3"
    },
    {
      "bufferView": 2,
      "byteOffset": 3156704,
      "componentType": 5126,
      "count": 65532,
      "max": [
        0.97254902124404907,
        0.92156863212585449,
        0.84313726425170898,
        1
      ],
      "min": [
        0.0039215688593685627,
        0.019607843831181526,
        0.0039215688593685627,
        1
      ],
      "type": "VEC4"
    },
    {
      "bufferView": 0,
      "byteOffset": 3811116,
      "componentType": 5125,
      "count": 314754,
      "max": [
        65531
      ],
      "min": [
        0
      ],
      "type": "SCALAR"
    },
    {
      "bufferView": 1,
      "byteOffset": 6307824,
      "componentType": 5126,
      "count": 65532,
      "max": [
        12.070862770080566,
        11.990419387817383,
        1.2627860307693481
      ],
      "min": [
        -6.489161491394043,
        -6.9059848785400391,
        -2.3965229988098145
      ],
      "type": "VEC3"
    },
    {
      "bufferView": 1,
      "byteOffset": 7094208,
      "componentType": 5126,
      "count": 65532,
      "max": [
        0.90642446279525757,
        0.78962874412536621,
        0.99999803304672241
      ],
      "min": [
        -0.80790728330612183,
        -0.79001379013061523,
        -0.99999982118606567
      ],
      "type": "VEC3"
    },
    {
      "bufferView": 2,
      "byteOffset": 4205216,
      "componentType": 5126,
      "count": 65532,
      "max": [
        0.87843137979507446,
        0.80392158031463623,
        0.73333334922790527,
        1
      ],
      "min": [
        0.16470588743686676,
        0.17647059261798859,
        0.070588238537311554,
        1
      ],
      "type": "VEC4"
    },
    {
      "bufferView": 0,
      "byteOffset": 5070132,
      "componentType": 5125,
      "count": 335763,
      "max": [
        65531
      ],
      "min": [
        0
      ],
      "type": "SCALAR"
    },
    {
      "bufferView": 1,
      "byteOffset": 7880592,
      "componentType": 5126,
      "count": 65532,
      "max": [
        12.715916633605957,
        12.010714530944824,
        1.4563586711883545
      ],
      "min": [
        -12.176931381225586,
        -5.4994387626647949,
        -1.8900643587112427
      ],
      "type": "VEC3"
    },
    {
      "bufferView": 1,
      "byteOffset": 8666976,
      "componentType": 5126,
      "count": 65532,
      "max": [
        0.99562430381774902,
        0.72936099767684937,
        0.99999988079071045
      ],
      "min": [
        -0.99874007701873779,
        -0.79088485240936279,
        -1
      ],
      "type": "VEC3"
    },
    {
      "bufferView": 2,
      "byteOffset": 5253728,
      "componentType": 5126,
      "count": 65532,
      "max": [
        0.96470588445663452,
        0.93725490570068359,
        0.87058824300765991,
        1
      ],
      "min": [
        0.16862745583057404,
        0.17647059261798859,
        0.047058824449777603,
        1
      ],
      "type": "VEC4"
    },
    {
      "bufferView": 0,
      "byteOffset": 6413184,
      "componentType": 5125,
      "count": 329298,
      "max": [
        65531
      ],
      "min": [
        0
      ],
      "type": "SCALAR"
    },
    {
      "bufferView": 1,
      "byteOffset": 9453360,
      "componentType": 5126,
      "count": 65532,
      "max": [
        5.6157708168029785,
        11.972514152526855,
        1.4990456104278564
      ],
      "min": [
        -12.845554351806641,
        -6.4163575172424316,
        -2.5949959754943848
      ],
      "type": "VEC3"
    },
    {
      "bufferView": 1,
      "byteOffset": 10239744,
      "componentType": 5126,
      "count": 65532,
      "max": [
        0.99911481142044067,
        0.76185989379882812,
        0.99999892711639404
      ],
      "min": [
        -0.99884486198425293,
        -0.7120094895362854,
        -0.99999970197677612
      ],
      "type": "VEC3"
    },
    {
      "bufferView": 2,
      "byteOffset": 6302240,
      "componentType": 5126,
      "count": 65532,
      "max": [
        0.96470588445663452,
        0.93725490570068359,
        0.89803922176361084,
        1
      ],
      "min": [
        0.10588235408067703,
        0.15294118225574493,
        0.062745101749897003,
        1
      ],
      "type": "VEC4"
    },
    {
      "bufferView": 0,
      "byteOffset": 7730376,
      "componentType": 5125,
      "count": 338118,
      "max": [
        65531
      ],
      "min": [
        0
      ],
      "type": "SCALAR"
    },
    {
      "bufferView": 1,
      "byteOffset": 11026128,
      "componentType": 5126,
      "count": 65532,
      "max": [
        12.896567344665527,
        10.228603363037109,
        1.4991437196731567
      ],
      "min": [
        -12.783695220947266,
        -12.23604679107666,
        -2.4971694946289062
      ],
      "type": "VEC3"
    },
    {
      "bufferView": 1,
      "byteOffset": 11812512,
      "componentType": 5126,
      "count": 65532,
      "max": [
        0.99972975254058838,
        0.91051745414733887,
        1
      ],
      "min": [
        -0.99693500995635986,
        -0.99762928485870361,
        -1
      ],
      "type": "VEC3"
    },
    {
      "bufferView": 2,
      "byteOffset": 7350752,
      "componentType": 5126,
      "count": 65532,
      "max": [
        0.96470588445663452,
        0.92941176891326904,
        0.87450981140136719,
        1
      ],
      "min": [
        0.039215687662363052,
        0.078431375324726105,
        0.070588238537311554,
        1
      ],
      "type": "VEC4"
    },
    {
      "bufferView": 0,
      "byteOffset": 9082848,
      "componentType": 5125,
      "count": 313950,
      "max": [
        65531
      ],
      "min": [
        0
      ],
      "type": "SCALAR"
    },
    {
      "bufferView": 1,
      "byteOffset": 12598896,
      "componentType": 5126,
      "count": 65532,
      "max": [
        12.989468574523926,
        3.8326282501220703,
        1.3741195201873779
      ],
      "min": [
        -0.2515682578086853,
        -13.794168472290039,
        -0.28850838541984558
      ],
      "type": "VEC3"
    },
    {
      "bufferView": 1,
      "byteOffset": 13385280,
      "componentType": 5126,
      "count": 65532,
      "max": [
        0.99588119983673096,
        0.81707066297531128,
        0.99999755620956421
      ],
      "min": [
        -0.99982821941375732,
        -0.95763695240020752,
        -0.99999994039535522
      ],
      "type": "VEC3"
    },
    {
      "bufferView": 2,
      "byteOffset": 8399264,
      "componentType": 5126,
      "count": 65532,
      "max": [
        0.95686274766921997,
        0.92941176891326904,
        0.90196079015731812,
        1
      ],
      "min": [
        0.17254902422428131,
        0.18431372940540314,
        0.086274512112140656,
        1
      ],
      "type": "VEC4"
    },
    {
      "bufferView": 0,
      "byteOffset": 10338648,
      "componentType": 5125,
      "count": 332133,
      "max": [
        65531
      ],
      "min": [
        0
      ],
      "type": "SCALAR"
    },
    {
      "bufferView": 1,
      "byteOffset": 14171664,
      "componentType": 5126,
      "count": 65533,
      "max": [
        11.821348190307617,
        11.934734344482422,
        1.4884666204452515
      ],
      "min": [
        -11.499692916870117,
        -13.630398750305176,
        -3.2878270149230957
      ],
      "type": "VEC3"
    },
    {
      "bufferView": 1,
      "byteOffset": 14958060,
      "componentType": 5126,
      "count": 65533,
      "max": [
        0.99216383695602417,
        0.99860626459121704,
        0.99999940395355225
      ],
      "min": [
        -0.98651343584060669,
        -0.99392753839492798,
        -0.99999934434890747
      ],
      "type": "VEC3"
    },
    {
      "bufferView": 2,
      "byteOffset": 9447776,
      "componentType": 5126,
      "count": 65533,
      "max": [
        0.9843137264251709,
        0.9529411792755127,
        0.88627451658248901,
        1
      ],
      "min": [
        0.027450980618596077,
        0.031372550874948502,
        0.0078431377187371254,
        1
      ],
      "type": "VEC4"
    },
    {
      "bufferView": 0,
      "byteOffset": 11667180,
      "componentType": 5125,
      "count": 288699,
      "max": [
        65532
      ],
      "min": [
        0
      ],
      "type": "SCALAR"
    },
    {
      "bufferView": 1,
      "byteOffset": 15744456,
      "componentType": 5126,
      "count": 65532,
      "max": [
        12.912304878234863,
        12.010714530944824,
        1.4921211004257202
      ],
      "min": [
        -12.845554351806641,
        -13.858688354492188,
        -3.3089067935943604
      ],
      "type": "VEC3"
    },
    {
      "bufferView": 1,
      "byteOffset": 16530840,
      "componentType": 5126,
      "count": 65532,
      "max": [
        0.9998134970664978,
        0.99998337030410767,
        0.99999934434890747
      ],
      "min": [
        -0.99984151124954224,
        -0.99998241662979126,
        -0.99999678134918213
      ],
      "type": "VEC3"
    },
    {
      "bufferView": 2,
      "byteOffset": 10496304,
      "componentType": 5126,
      "count": 65532,
      "max": [
        0.97254902124404907,
        0.93725490570068359,
        0.89411765336990356,
        1
      ],
      "min": [
        0.039215687662363052,
        0.054901961237192154,
        0.039215687662363052,
        1
      ],
      "type": "VEC4"
    },
    {
      "bufferView": 0,
      "byteOffset": 12821976,
      "componentType": 5125,
      "count": 211857,
      "max": [
        65531
      ],
      "min": [
        0
      ],
      "type": "SCALAR"
    },
    {
      "bufferView": 1,
      "byteOffset": 17317224,
      "componentType": 5126,
      "count": 65532,
      "max": [
        12.989468574523926,
        12.19066333770752,
        1.4640558958053589
      ],
      "min": [
        -12.572449684143066,
        -13.845962524414062,
        -2.6371350288391113
      ],
      "type": "VEC3"
    },
    {
      "bufferView": 1,
      "byteOffset": 18103608,
      "componentType": 5126,
      "count": 65532,
      "max": [
        0.96630299091339111,
        0.99935686588287354,
        0.9999992847442627
      ],
      "min": [
        -0.99758774042129517,
        -0.99931168556213379,
        -0.99999916553497314
      ],
      "type": "VEC3"
    },
    {
      "bufferView": 2,
      "byteOffset": 11544816,
      "componentType": 5126,
      "count": 65532,
      "max": [
        0.97647058963775635,
        0.92941176891326904,
        0.87843137979507446,
        1
      ],
      "min": [
        0.047058824449777603,
        0.066666670143604279,
        0.039215687662363052,
        1
      ],
      "type": "VEC4"
    },
    {
      "bufferView": 0,
      "byteOffset": 13669404,
      "componentType": 5125,
      "count": 196158,
      "max": [
        65531
      ],
      "min": [
        0
      ],
      "type": "SCALAR"
    },
    {
      "bufferView": 1,
      "byteOffset": 18889992,
      "componentType": 5126,
      "count": 65532,
      "max": [
        9.9003810882568359,
        7.5500121116638184,
        1.5732731819152832
      ],
      "min": [
        -11.707342147827148,
        -13.865500450134277,
        -0.69319772720336914
      ],
      "type": "VEC3"
    },
    {
      "bufferView": 1,
      "byteOffset": 19676376,
      "componentType": 5126,
      "count": 65532,
      "max": [
        0.83215564489364624,
        0.99968671798706055,
        0.99999970197677612
      ],
      "min": [
        -0.99874001741409302,
        -0.99739301204681396,
        -0.9999995231628418
      ],
      "type": "VEC3"
    },
    {
      "bufferView": 2,
      "byteOffset": 12593328,
      "componentType": 5126,
      "count": 65532,
      "max": [
        0.97254902124404907,
        0.92941176891326904,
        0.81176471710205078,
        1
      ],
      "min": [
        0.011764706112444401,
        0.031372550874948502,
        0.015686275437474251,
        1
      ],
      "type": "VEC4"
    },
    {
      "bufferView": 0,
      "byteOffset": 14454036,
      "componentType": 5125,
      "count": 331941,
      "max": [
        65531
      ],
      "min": [
        0
      ],
      "type": "SCALAR"
    },
    {
      "bufferView": 1,
      "byteOffset": 20462760,
      "componentType": 5126,
      "count": 65532,
      "max": [
        12.715916633605957,
        12.010714530944824,
        1.4464342594146729
      ],
      "min": [
        -5.9714264869689941,
        -13.776279449462891,
        -2.641650915145874
      ],
      "type": "VEC3"
    },
    {
      "bufferView": 1,
      "byteOffset": 21249144,
      "componentType": 5126,
      "count": 65532,
      "max": [
        0.9956243634223938,
        0.78962934017181396,
        0.99999988079071045
      ],
      "min": [
        -0.86343884468078613,
        -0.99587011337280273,
        -0.99999982118606567
      ],
      "type": "VEC3"
    },
    {
      "bufferView": 2,
      "byteOffset": 13641840,
      "componentType": 5126,
      "count": 65532,
      "max": [
        0.95686274766921997,
        0.89411765336990356,
        0.87843137979507446,
        1
      ],
      "min": [
        0.14117647707462311,
        0.13333334028720856,
        0.074509806931018829,
        1
      ],
      "type": "VEC4"
    },
    {
      "bufferView": 0,
      "byteOffset": 15781800,
      "componentType": 5125,
      "count": 338922,
      "max": [
        65531
      ],
      "min": [
        0
      ],
      "type": "SCALAR"
    },
    {
      "bufferView": 1,
      "byteOffset": 22035528,
      "componentType": 5126,
      "count": 65532,
      "max": [
        7.9574627876281738,
        12.006501197814941,
        1.5170402526855469
      ],
      "min": [
        -12.010603904724121,
        -5.1005148887634277,
        -1.9105637073516846
      ],
      "type": "VEC3"
    },
    {
      "bufferView": 1,
      "byteOffset": 22821912,
      "componentType": 5126,
      "count": 65532,
      "max": [
        0.82244020700454712,
        0.66240674257278442,
        0.99999946355819702
      ],
      "min": [
        -0.82277911901473999,
        -0.68574786186218262,
        -1
      ],
      "type": "VEC3"
    },
    {
      "bufferView": 2,
      "byteOffset": 14690352,
      "componentType": 5126,
      "count": 65532,
      "max": [
        0.94509804248809814,
        0.87843137979507446,
        0.74901962280273438,
        1
      ],
      "min": [
        0.14901961386203766,
        0.17647059261798859,
        0.11372549086809158,
        1
      ],
      "type": "VEC4"
    },
    {
      "bufferView": 0,
      "byteOffset": 17137488,
      "componentType": 5125,
      "count": 344502,
      "max": [
        65531
      ],
      "min": [
        0
      ],
      "type": "SCALAR"
    },
    {
      "bufferView": 1,
      "byteOffset": 23608296,
      "componentType": 5126,
      "count": 65532,
      "max": [
        12.896567344665527,
        10.228603363037109,
        1.5810524225234985
      ],
      "min": [
        -12.845554351806641,
        -11.332736968994141,
        -2.6482236385345459
      ],
      "type": "VEC3"
    },
    {
      "bufferView": 1,
      "byteOffset": 24394680,
      "componentType": 5126,
      "count": 65532,
      "max": [
        0.99972963333129883,
        0.91051793098449707,
        0.9999995231628418
      ],
      "min": [
        -0.99884486198425293,
        -0.99762916564941406,
        -1
      ],
      "type": "VEC3"
    },
    {
      "bufferView": 2,
      "byteOffset": 15738864,
      "componentType": 5126,
      "count": 65532,
      "max": [
        0.98823529481887817,
        0.99215686321258545,
        0.99215686321258545,
        1
      ],
      "min": [
        0.062745101749897003,
        0.10196078568696976,
        0.08235294371843338,
        1
      ],
      "type": "VEC4"
    },
    {
      "bufferView": 0,
      "byteOffset": 18515496,
      "componentType": 5125,
      "count": 326235,
      "max": [
        65531
      ],
      "min": [
        0
      ],
      "type": "SCALAR"
    },
    {
      "bufferView": 1,
      "byteOffset": 25181064,
      "componentType": 5126,
      "count": 65532,
      "max": [
        12.989468574523926,
        5.3672885894775391,
        1.4560284614562988
      ],
      "min": [
        -0.2515682578086853,
        -13.794168472290039,
        -0.17855870723724365
      ],
      "type": "VEC3"
    },
    {
      "bufferView": 1,
      "byteOffset": 25967448,
      "componentType": 5126,
      "count": 65532,
      "max": [
        0.99640047550201416,
        0.62331223487854004,
        1
      ],
      "min": [
        -0.99982821941375732,
        -0.99249827861785889,
        -0.99999994039535522
      ],
      "type": "VEC3"
    },
    {
      "bufferView": 2,
      "byteOffset": 16787376,
      "componentType": 5126,
      "count": 65532,
      "max": [
        0.97647058963775635,
        0.91764706373214722,
        0.76470589637756348,
        1
      ],
      "min": [
        0.21960784494876862,
        0.21176470816135406,
        0.14117647707462311,
        1
      ],
      "type": "VEC4"
    },
    {
      "bufferView": 0,
      "byteOffset": 19820436,
      "componentType": 5125,
      "count": 336027,
      "max": [
        65531
      ],
      "min": [
        0
      ],
      "type": "SCALAR"
    },
    {
      "bufferView": 1,
      "byteOffset": 26753832,
      "componentType": 5126,
      "count": 65532,
      "max": [
        11.821348190307617,
        11.954665184020996,
        1.574029803276062
      ],
      "min": [
        -12.684965133666992,
        -13.616764068603516,
        -2.6679353713989258
      ],
      "type": "VEC3"
    },
    {
      "bufferView": 1,
      "byteOffset": 27540216,
      "componentType": 5126,
      "count": 65532,
      "max": [
        0.9802965521812439,
        0.99875593185424805,
        0.99999940395355225
      ],
      "min": [
        -0.99902677536010742,
        -0.98188555240631104,
        -0.99999862909317017
      ],
      "type": "VEC3"
    },
    {
      "bufferView": 2,
      "byteOffset": 17835888,
      "componentType": 5126,
      "count": 65532,
      "max": [
        0.97254902124404907,
        0.93333333730697632,
        0.86274510622024536,
        1
      ],
      "min": [
        0.039215687662363052,
        0.054901961237192154,
        0.039215687662363052,
        1
      ],
      "type": "VEC4"
    },
    {
      "bufferView": 0,
      "byteOffset": 21164544,
      "componentType": 5125,
      "count": 286815,
      "max": [
        65531
      ],
      "min": [
        0
      ],
      "type": "SCALAR"
    },
    {
      "bufferView": 1,
      "byteOffset": 28326600,
      "componentType": 5126,
      "count": 65533,
      "max": [
        12.989468574523926,
        12.010714530944824,
        1.5695834159851074
      ],
      "min": [
        -12.845554351806641,
        -13.858688354492188,
        -3.3103775978088379
      ],
      "type": "VEC3"
    },
    {
      "bufferView": 1,
      "byteOffset": 29112996,
      "componentType": 5126,
      "count": 65533,
      "max": [
        0.99981355667114258,
        0.99998337030410767,
        0.9999992847442627
      ],
      "min": [
        -0.9995461106300354,
        -0.99998241662979126,
        -0.99999886751174927
      ],
      "type": "VEC3"
    },
    {
      "bufferView": 2,
      "byteOffset": 18884400,
      "componentType": 5126,
      "count": 65533,
      "max": [
        0.9843137264251709,
        0.99215686321258545,
        0.98823529481887817,
        1
      ],
      "min": [
        0.039215687662363052,
        0.054901961237192154,
        0.039215687662363052,
        1
      ],
      "type": "VEC4"
    },
    {
      "bufferView": 0,
      "byteOffset": 22311804,
      "componentType": 5125,
      "count": 146142,
      "max": [
        65532
      ],
      "min": [
        0
      ],
      "type": "SCALAR"
    },
    {
      "bufferView": 1,
      "byteOffset": 29899392,
      "componentType": 5126,
      "count": 24492,
      "max": [
        12.765872955322266,
        11.690862655639648,
        1.5751833915710449
      ],
      "min": [
        -12.826084136962891,
        -13.796474456787109,
        -3.2921864986419678
      ],
      "type": "VEC3"
    },
    {
      "bufferView": 1,
      "byteOffset": 30193296,
      "componentType": 5126,
      "count": 24492,
      "max": [
        0.99915575981140137,
        0.97103071212768555,
        0.9999966025352478
      ],
      "min": [
        -0.99915575981140137,
        -0.97999674081802368,
        -0.99999678134918213
      ],
      "type": "VEC3"
    },
    {
      "bufferView": 2,
      "byteOffset": 19932928,
      "componentType": 5126,
      "count": 24492,
      "max": [
        0.9686274528503418,
        0.94901961088180542,
        0.93725490570068359,
        1
      ],
      "min": [
        0.054901961237192154,
        0.066666670143604279,
        0.050980392843484879,
        1
      ],
      "type": "VEC4"
    },
    {
      "bufferView": 0,
      "byteOffset": 22896372,
      "componentType": 5125,
      "count": 37869,
      "max": [
        24491
      ],
      "min": [
        0
      ],
      "type": "SCALAR"
    }
  ],
  "asset": {
    "extras": {
      "author": "Limerick3D (https://sketchfab.com/Limerick3D)",
      "license": "CC0-1.0 (http://creativecommons.org/publicdomain/zero/1.0/)",
      "source": "https://sketchfab.com/3d-models/bronze-domed-shield-boss-or-phalera-hca-662-6f5b9cf105154982a694242cd2f23427",
      "title": "Bronze domed shield boss or phalera, HCA 662"
    },
    "generator": "Sketchfab-7.92.0",
    "version": "2.0"
  },
  "bufferViews": [
    {
      "buffer": 0,
      "byteLength": 23047848,
      "byteOffset": 0,
      "name": "floatBufferViews",
      "target": 34963
    },
    {
      "buffer": 0,
      "byteLength": 30487200,
      "byteOffset": 23047848,
      "byteStride": 12,
      "name": "floatBufferViews",
      "target": 34962
    },
    {
      "buffer": 0,
      "byteLength": 20324800,
      "byteOffset": 53535048,
      "byteStride": 16,
      "name": "floatBufferViews",
      "target": 34962
    }
  ],
  "buffers": [
    {
      "byteLength": 73859848,
      "uri": "scene.bin"
    }
  ],
  "extensionsRequired": [
    "KHR_materials_pbrSpecularGlossiness"
  ],
  "extensionsUsed": [
    "KHR_materials_pbrSpecularGlossiness"
  ],
  "materials": [
    {
      "doubleSided": true,
      "extensions": {
        "KHR_materials_pbrSpecularGlossiness": {
          "diffuseFactor": [
            0.89863637288411458,
            0.89863637288411458,
            0.89863637288411458,
            1
          ],
          "glossinessFactor": 0.40439393014618841,
          "specularFactor": [
            0.019848494096235795,
            0.019848494096235795,
            0.019848494096235795
          ]
        }
      },
      "name": "material_0"
    }
  ],
  "meshes": [
    {
      "primitives": [
        {
          "attributes": {
            "COLOR_0": 2,
            "NORMAL": 1,
            "POSITION": 0
          },
          "indices": 3,
          "material": 0,
          "mode": 4
        }
      ]
    },
    {
      "primitives": [
        {
          "attributes": {
            "COLOR_0": 6,
            "NORMAL": 5,
            "POSITION": 4
          },
          "indices": 7,
          "material": 0,
          "mode": 4
        }
      ]
    },
    {
      "primitives": [
        {
          "attributes": {
            "COLOR_0": 10,
            "NORMAL": 9,
            "POSITION": 8
          },
          "indices": 11,
          "material": 0,
          "mode": 4
        }
      ]
    },
    {
      "primitives": [
        {
          "attributes": {
            "COLOR_0": 14,
            "NORMAL": 13,
            "POSITION": 12
          },
          "indices": 15,
          "material": 0,
          "mode": 4
        }
      ]
    },
    {
      "primitives": [
        {
          "attributes": {
            "COLOR_0": 18,
            "NORMAL": 17,
            "POSITION": 16
          },
          "indices": 19,
          "material": 0,
          "mode": 4
        }
      ]
    },
    {
      "primitives": [
        {
          "attributes": {
            "COLOR_0": 22,
            "NORMAL": 21,
            "POSITION": 20
          },
          "indices": 23,
          "material": 0,
          "mode": 4
        }
      ]
    },
    {
      "primitives": [
        {
          "attributes": {
            "COLOR_0": 26,
            "NORMAL": 25,
            "POSITION": 24
          },
          "indices": 27,
          "material": 0,
          "mode": 4
        }
      ]
    },
    {
      "primitives": [
        {
          "attributes": {
            "COLOR_0": 30,
            "NORMAL": 29,
            "POSITION": 28
          },
          "indices": 31,
          "material": 0,
          "mode": 4
        }
      ]
    },
    {
      "primitives": [
        {
          "attributes": {
            "COLOR_0": 34,
            "NORMAL": 33,
            "POSITION": 32
          },
          "indices": 35,
          "material": 0,
          "mode": 4
        }
      ]
    },
    {
      "primitives": [
        {
          "attributes": {
            "COLOR_0": 38,
            "NORMAL": 37,
            "POSITION": 36
          },
          "indices": 39,
          "material": 0,
          "mode": 4
        }
      ]
    },
    {
      "primitives": [
        {
          "attributes": {
            "COLOR_0": 42,
            "NORMAL": 41,
            "POSITION": 40
          },
          "indices": 43,
          "material": 0,
          "mode": 4
        }
      ]
    },
    {
      "primitives": [
        {
          "attributes": {
            "COLOR_0": 46,
            "NORMAL": 45,
            "POSITION": 44
          },
          "indices": 47,
          "material": 0,
          "mode": 4
        }
      ]
    },
    {
      "primitives": [
        {
          "attributes": {
            "COLOR_0": 50,
            "NORMAL": 49,
            "POSITION": 48
          },
          "indices": 51,
          "material": 0,
          "mode": 4
        }
      ]
    },
    {
      "primitives": [
        {
          "attributes": {
            "COLOR_0": 54,
            "NORMAL": 53,
            "POSITION": 52
          },
          "indices": 55,
          "material": 0,
          "mode": 4
        }
      ]
    },
    {
      "primitives": [
        {
          "attributes": {
            "COLOR_0": 58,
            "NORMAL": 57,
            "POSITION": 56
          },
          "indices": 59,
          "material": 0,
          "mode": 4
        }
      ]
    },
    {
      "primitives": [
        {
          "attributes": {
            "COLOR_0": 62,
            "NORMAL": 61,
            "POSITION": 60
          },
          "indices": 63,
          "material": 0,
          "mode": 4
        }
      ]
    },
    {
      "primitives": [
        {
          "attributes": {
            "COLOR_0": 66,
            "NORMAL": 65,
            "POSITION": 64
          },
          "indices": 67,
          "material": 0,
          "mode": 4
        }
      ]
    },
    {
      "primitives": [
        {
          "attributes": {
            "COLOR_0": 70,
            "NORMAL": 69,
            "POSITION": 68
          },
          "indices": 71,
          "material": 0,
          "mode": 4
        }
      ]
    },
    {
      "primitives": [
        {
          "attributes": {
            "COLOR_0": 74,
            "NORMAL": 73,
            "POSITION": 72
          },
          "indices": 75,
          "material": 0,
          "mode": 4
        }
      ]
    },
    {
      "primitives": [
        {
          "attributes": {
            "COLOR_0": 78,
            "NORMAL": 77,
            "POSITION": 76
          },
          "indices": 79,
          "material": 0,
          "mode": 4
        }
      ]
    },
    {
      "primitives": [
        {
          "attributes": {
            "COLOR_0": 82,
            "NORMAL": 81,
            "POSITION": 80
          },
          "indices": 83,
          "material": 0,
          "mode": 4
        }
      ]
    }
  ],
  "nodes": [
    {
      "children": [
        1
      ],
      "name": "RootNode (gltf orientation matrix)",
      "rotation": [
        -0.70710678118654746,
        -0,
        -0,
        0.70710678118654757
      ]
    },
    {
      "children": [
        2
      ],
      "name": "RootNode (model correction matrix)"
    },
    {
      "children": [
        3,
        4,
        5,
        6,
        7,
        8,
        9,
        10,
        11,
        12,
        13,
        14,
        15,
        16,
        17,
        18,
        19,
        20,
        21,
        22,
        23
      ],
      "name": "Final_Export_Phalera.OBJ.cleaner.materialmerger.gles"
    },
    {
      "mesh": 0,
      "name": ""
    },
    {
      "mesh": 1,
      "name": ""
    },
    {
      "mesh": 2,
      "name": ""
    },
    {
      "mesh": 3,
      "name": ""
    },
    {
      "mesh": 4,
      "name": ""
    },
    {
      "mesh": 5,
      "name": ""
    },
    {
      "mesh": 6,
      "name": ""
    },
    {
      "mesh": 7,
      "name": ""
    },
    {
      "mesh": 8,
      "name": ""
    },
    {
      "mesh": 9,
      "name": ""
    },
    {
      "mesh": 10,
      "name": ""
    },
    {
      "mesh": 11,
      "name": ""
    },
    {
      "mesh": 12,
      "name": ""
    },
    {
      "mesh": 13,
      "name": ""
    },
    {
      "mesh": 14,
      "name": ""
    },
    {
      "mesh": 15,
      "name": ""
    },
    {
      "mesh": 16,
      "name": ""
    },
    {
      "mesh": 17,
      "name": ""
    },
    {
      "mesh": 18,
      "name": ""
    },
    {
      "mesh": 19,
      "name": ""
    },
    {
      "mesh": 20,
      "name": ""
    }
  ],
  "scene": 0,
  "scenes": [
    {
      "name": "OSG_Scene",
      "nodes": [
        0
      ]
    }
  ]
}

