{
	"asset":{
		"generator":"Khronos glTF Blender I/O v4.2.57",
		"version":"2.0"
	},
	"extensionsUsed":[
		"KHR_materials_emissive_strength"
	],
	"scene":0,
	"scenes":[
		{
			"name":"Scene",
			"nodes":[
				0,
				1,
				2,
				3,
				4,
				5,
				6,
				7
			]
		}
	],
	"nodes":[
		{
			"mesh":0,
			"name":"InnerHull.001",
			"scale":[
				1.100000023841858,
				1.100000023841858,
				1.100000023841858
			]
		},
		{
			"mesh":1,
			"name":"Lights.002",
			"rotation":[
				0.7071068286895752,
				0,
				0,
				0.7071068286895752
			],
			"scale":[
				0.33000001311302185,
				0.33000001311302185,
				0.33000001311302185
			],
			"translation":[
				1.6570091247558594e-05,
				-0.0002446472644805908,
				-0.0011118026450276375
			]
		},
		{
			"mesh":2,
			"name":"OutsideDetails01.001",
			"rotation":[
				0.7071068286895752,
				0,
				0,
				0.7071068286895752
			],
			"scale":[
				0.33000001311302185,
				0.33000001311302185,
				0.33000001311302185
			],
			"translation":[
				1.6570091247558594e-05,
				-0.0002446472644805908,
				-0.0011118026450276375
			]
		},
		{
			"mesh":3,
			"name":"OutsideDetails02.001",
			"rotation":[
				0.7071068286895752,
				0,
				0,
				0.7071068286895752
			],
			"scale":[
				0.33000001311302185,
				0.33000001311302185,
				0.33000001311302185
			],
			"translation":[
				1.6570091247558594e-05,
				-0.0002446472644805908,
				-0.0011118026450276375
			]
		},
		{
			"mesh":4,
			"name":"Transparency.002"
		},
		{
			"mesh":5,
			"name":"Interior.001"
		},
		{
			"mesh":6,
			"name":"LowerHull.001",
			"scale":[
				1.100000023841858,
				1.100000023841858,
				1.100000023841858
			],
			"translation":[
				1.6570091247558594e-05,
				-0.0002446472644805908,
				-0.0011118026450276375
			]
		},
		{
			"mesh":7,
			"name":"UpperHull.001",
			"scale":[
				1.100000023841858,
				1.100000023841858,
				1.100000023841858
			],
			"translation":[
				1.6570091247558594e-05,
				-0.0002446472644805908,
				-0.0011118026450276375
			]
		}
	],
	"materials":[
		{
			"doubleSided":true,
			"name":"InsideHull",
			"normalTexture":{
				"index":0,
				"scale":0.20000004768371582
			},
			"pbrMetallicRoughness":{
				"baseColorTexture":{
					"index":1
				},
				"metallicRoughnessTexture":{
					"index":2
				}
			}
		},
		{
			"doubleSided":true,
			"emissiveFactor":[
				1,
				1,
				1
			],
			"emissiveTexture":{
				"index":3
			},
			"extensions":{
				"KHR_materials_emissive_strength":{
					"emissiveStrength":1000
				}
			},
			"name":"Lights",
			"pbrMetallicRoughness":{
				"baseColorTexture":{
					"index":4
				},
				"metallicFactor":0,
				"roughnessFactor":0.5
			}
		},
		{
			"doubleSided":true,
			"name":"OutsideDetails01",
			"normalTexture":{
				"index":5
			},
			"pbrMetallicRoughness":{
				"baseColorTexture":{
					"index":6
				},
				"metallicRoughnessTexture":{
					"index":7
				}
			}
		},
		{
			"doubleSided":true,
			"name":"OutsideDetails02",
			"normalTexture":{
				"index":8
			},
			"pbrMetallicRoughness":{
				"baseColorTexture":{
					"index":9
				},
				"metallicRoughnessTexture":{
					"index":10
				}
			}
		},
		{
			"alphaMode":"BLEND",
			"doubleSided":true,
			"name":"TransparentItems",
			"pbrMetallicRoughness":{
				"baseColorTexture":{
					"index":11
				},
				"metallicFactor":0,
				"metallicRoughnessTexture":{
					"index":12
				}
			}
		},
		{
			"doubleSided":true,
			"name":"Interior02",
			"normalTexture":{
				"index":13
			},
			"pbrMetallicRoughness":{
				"baseColorTexture":{
					"index":14
				},
				"metallicRoughnessTexture":{
					"index":15
				}
			}
		},
		{
			"doubleSided":true,
			"name":"LowerHull",
			"normalTexture":{
				"index":16
			},
			"pbrMetallicRoughness":{
				"baseColorTexture":{
					"index":17
				},
				"metallicRoughnessTexture":{
					"index":18
				}
			}
		},
		{
			"doubleSided":true,
			"name":"UpperHull.001",
			"normalTexture":{
				"index":19
			},
			"pbrMetallicRoughness":{
				"baseColorTexture":{
					"index":20
				},
				"metallicRoughnessTexture":{
					"index":21
				}
			}
		}
	],
	"meshes":[
		{
			"name":"Circle.006",
			"primitives":[
				{
					"attributes":{
						"POSITION":0,
						"NORMAL":1,
						"TEXCOORD_0":2,
						"TEXCOORD_1":3
					},
					"indices":4,
					"material":0
				}
			]
		},
		{
			"name":"Cylinder.014",
			"primitives":[
				{
					"attributes":{
						"POSITION":5,
						"NORMAL":6,
						"TEXCOORD_0":7
					},
					"indices":8,
					"material":1
				}
			]
		},
		{
			"name":"Cylinder.016",
			"primitives":[
				{
					"attributes":{
						"POSITION":9,
						"NORMAL":10,
						"TEXCOORD_0":11
					},
					"indices":12,
					"material":2
				}
			]
		},
		{
			"name":"Cylinder.020",
			"primitives":[
				{
					"attributes":{
						"POSITION":13,
						"NORMAL":14,
						"TEXCOORD_0":15
					},
					"indices":16,
					"material":3
				}
			]
		},
		{
			"name":"Cylinder.026",
			"primitives":[
				{
					"attributes":{
						"POSITION":17,
						"NORMAL":18,
						"TEXCOORD_0":19
					},
					"indices":20,
					"material":4
				}
			]
		},
		{
			"name":"Cylinder.027",
			"primitives":[
				{
					"attributes":{
						"POSITION":21,
						"NORMAL":22,
						"TEXCOORD_0":23,
						"TEXCOORD_1":24
					},
					"indices":25,
					"material":5
				}
			]
		},
		{
			"name":"Cube.007",
			"primitives":[
				{
					"attributes":{
						"POSITION":26,
						"NORMAL":27,
						"TEXCOORD_0":28,
						"TEXCOORD_1":29,
						"TEXCOORD_2":30
					},
					"indices":31,
					"material":6
				}
			]
		},
		{
			"name":"Cube.008",
			"primitives":[
				{
					"attributes":{
						"POSITION":32,
						"NORMAL":33,
						"TEXCOORD_0":34,
						"TEXCOORD_1":35,
						"TEXCOORD_2":36
					},
					"indices":37,
					"material":7
				}
			]
		}
	],
	"textures":[
		{
			"sampler":0,
			"source":0
		},
		{
			"sampler":0,
			"source":1
		},
		{
			"sampler":0,
			"source":2
		},
		{
			"sampler":0,
			"source":3
		},
		{
			"sampler":0,
			"source":4
		},
		{
			"sampler":0,
			"source":5
		},
		{
			"sampler":0,
			"source":6
		},
		{
			"sampler":0,
			"source":7
		},
		{
			"sampler":0,
			"source":8
		},
		{
			"sampler":0,
			"source":9
		},
		{
			"sampler":0,
			"source":10
		},
		{
			"sampler":0,
			"source":11
		},
		{
			"sampler":0,
			"source":12
		},
		{
			"sampler":0,
			"source":13
		},
		{
			"sampler":0,
			"source":14
		},
		{
			"sampler":0,
			"source":15
		},
		{
			"sampler":0,
			"source":16
		},
		{
			"sampler":0,
			"source":17
		},
		{
			"sampler":0,
			"source":18
		},
		{
			"sampler":0,
			"source":19
		},
		{
			"sampler":0,
			"source":20
		},
		{
			"sampler":0,
			"source":21
		}
	],
	"images":[
		{
			"mimeType":"image/png",
			"name":"InnerHullNormal",
			"uri":"InnerHullNormal.png"
		},
		{
			"mimeType":"image/png",
			"name":"InnerHullColour",
			"uri":"InnerHullColour.png"
		},
		{
			"mimeType":"image/png",
			"name":"InnerHullMetallic.png-InnerHullRoughness.png",
			"uri":"InnerHullMetallic_png-InnerHullRoughness_png.png"
		},
		{
			"mimeType":"image/png",
			"name":"LightsEmission",
			"uri":"LightsEmission.png"
		},
		{
			"mimeType":"image/png",
			"name":"LightsColour",
			"uri":"LightsColour.png"
		},
		{
			"mimeType":"image/png",
			"name":"OutsideDetails01Normal",
			"uri":"OutsideDetails01Normal.png"
		},
		{
			"mimeType":"image/png",
			"name":"OutsideDetails01Colour",
			"uri":"OutsideDetails01Colour.png"
		},
		{
			"mimeType":"image/png",
			"name":"OutsideDetails01Metallic.png-OutsideDetails01Roughness.png",
			"uri":"OutsideDetails01Metallic_png-OutsideDetails01Roughness_png.png"
		},
		{
			"mimeType":"image/png",
			"name":"OutsideDetails02Normal",
			"uri":"OutsideDetails02Normal.png"
		},
		{
			"mimeType":"image/png",
			"name":"OutsideDetails02Colour",
			"uri":"OutsideDetails02Colour.png"
		},
		{
			"mimeType":"image/png",
			"name":"OutsideDetails02Metallic.png-OutsideDetails02Roughness.png",
			"uri":"OutsideDetails02Metallic_png-OutsideDetails02Roughness_png.png"
		},
		{
			"mimeType":"image/png",
			"name":"TransparentItemsColour-TransparentItemsAlpha",
			"uri":"TransparentItemsColour-TransparentItemsAlpha.png"
		},
		{
			"mimeType":"image/png",
			"name":"TransparentItemsRoughness",
			"uri":"TransparentItemsRoughness.png"
		},
		{
			"mimeType":"image/png",
			"name":"InteriorNormal",
			"uri":"InteriorNormal.png"
		},
		{
			"mimeType":"image/png",
			"name":"InteriorColour",
			"uri":"InteriorColour.png"
		},
		{
			"mimeType":"image/png",
			"name":"InteriorMetallic-InteriorRoughness.png",
			"uri":"InteriorMetallic-InteriorRoughness_png.png"
		},
		{
			"mimeType":"image/png",
			"name":"LowerHullNormal",
			"uri":"LowerHullNormal.png"
		},
		{
			"mimeType":"image/png",
			"name":"LowerHullColour",
			"uri":"LowerHullColour.png"
		},
		{
			"mimeType":"image/png",
			"name":"LowerHullMetallic.png-LowerHullRoughness.png",
			"uri":"LowerHullMetallic_png-LowerHullRoughness_png.png"
		},
		{
			"mimeType":"image/png",
			"name":"UpperHullNormal",
			"uri":"UpperHullNormal.png"
		},
		{
			"mimeType":"image/png",
			"name":"UpperHullColour",
			"uri":"UpperHullColour.png"
		},
		{
			"mimeType":"image/png",
			"name":"UpperHullMetallic.png-UpperHullRoughness.png",
			"uri":"UpperHullMetallic_png-UpperHullRoughness_png.png"
		}
	],
	"accessors":[
		{
			"bufferView":0,
			"componentType":5126,
			"count":5302,
			"max":[
				0.9032336473464966,
				1.4010263681411743,
				2.5250067710876465
			],
			"min":[
				-0.9032336473464966,
				-1.1800000667572021,
				-2.5250067710876465
			],
			"type":"VEC3"
		},
		{
			"bufferView":1,
			"componentType":5126,
			"count":5302,
			"type":"VEC3"
		},
		{
			"bufferView":2,
			"componentType":5126,
			"count":5302,
			"type":"VEC2"
		},
		{
			"bufferView":3,
			"componentType":5126,
			"count":5302,
			"type":"VEC2"
		},
		{
			"bufferView":4,
			"componentType":5123,
			"count":17664,
			"type":"SCALAR"
		},
		{
			"bufferView":5,
			"componentType":5126,
			"count":816,
			"max":[
				3.3067917823791504,
				11.593777656555176,
				0.9351214170455933
			],
			"min":[
				-3.3067917823791504,
				-11.593777656555176,
				-3.5754690170288086
			],
			"type":"VEC3"
		},
		{
			"bufferView":6,
			"componentType":5126,
			"count":816,
			"type":"VEC3"
		},
		{
			"bufferView":7,
			"componentType":5126,
			"count":816,
			"type":"VEC2"
		},
		{
			"bufferView":8,
			"componentType":5123,
			"count":3900,
			"type":"SCALAR"
		},
		{
			"bufferView":9,
			"componentType":5126,
			"count":47090,
			"max":[
				4.7789788246154785,
				11.536657333374023,
				4.023660659790039
			],
			"min":[
				-4.7789788246154785,
				-11.904921531677246,
				-4.885667324066162
			],
			"type":"VEC3"
		},
		{
			"bufferView":10,
			"componentType":5126,
			"count":47090,
			"type":"VEC3"
		},
		{
			"bufferView":11,
			"componentType":5126,
			"count":47090,
			"type":"VEC2"
		},
		{
			"bufferView":12,
			"componentType":5123,
			"count":145164,
			"type":"SCALAR"
		},
		{
			"bufferView":13,
			"componentType":5126,
			"count":17386,
			"max":[
				4.90755558013916,
				12.293034553527832,
				4.507602691650391
			],
			"min":[
				-4.90755558013916,
				-12.293034553527832,
				-5.22498083114624
			],
			"type":"VEC3"
		},
		{
			"bufferView":14,
			"componentType":5126,
			"count":17386,
			"type":"VEC3"
		},
		{
			"bufferView":15,
			"componentType":5126,
			"count":17386,
			"type":"VEC2"
		},
		{
			"bufferView":16,
			"componentType":5123,
			"count":64914,
			"type":"SCALAR"
		},
		{
			"bufferView":17,
			"componentType":5126,
			"count":2449,
			"max":[
				0.8800163865089417,
				0.8266849517822266,
				3.343379497528076
			],
			"min":[
				-0.8799829483032227,
				-0.8996819257736206,
				-3.868622064590454
			],
			"type":"VEC3"
		},
		{
			"bufferView":18,
			"componentType":5126,
			"count":2449,
			"type":"VEC3"
		},
		{
			"bufferView":19,
			"componentType":5126,
			"count":2449,
			"type":"VEC2"
		},
		{
			"bufferView":20,
			"componentType":5123,
			"count":9918,
			"type":"SCALAR"
		},
		{
			"bufferView":21,
			"componentType":5126,
			"count":29697,
			"max":[
				1.0090914964675903,
				1.4356365203857422,
				2.142399311065674
			],
			"min":[
				-0.982348620891571,
				-0.44999998807907104,
				-2.1922106742858887
			],
			"type":"VEC3"
		},
		{
			"bufferView":22,
			"componentType":5126,
			"count":29697,
			"type":"VEC3"
		},
		{
			"bufferView":23,
			"componentType":5126,
			"count":29697,
			"type":"VEC2"
		},
		{
			"bufferView":24,
			"componentType":5126,
			"count":29697,
			"type":"VEC2"
		},
		{
			"bufferView":25,
			"componentType":5123,
			"count":92130,
			"type":"SCALAR"
		},
		{
			"bufferView":26,
			"componentType":5126,
			"count":3439,
			"max":[
				1.4111640453338623,
				1.1679998636245728,
				2.396371841430664
			],
			"min":[
				-1.4111640453338623,
				-1.311164379119873,
				-2.396371841430664
			],
			"type":"VEC3"
		},
		{
			"bufferView":27,
			"componentType":5126,
			"count":3439,
			"type":"VEC3"
		},
		{
			"bufferView":28,
			"componentType":5126,
			"count":3439,
			"type":"VEC2"
		},
		{
			"bufferView":29,
			"componentType":5126,
			"count":3439,
			"type":"VEC2"
		},
		{
			"bufferView":30,
			"componentType":5126,
			"count":3439,
			"type":"VEC2"
		},
		{
			"bufferView":31,
			"componentType":5123,
			"count":10668,
			"type":"SCALAR"
		},
		{
			"bufferView":32,
			"componentType":5126,
			"count":4646,
			"max":[
				1.2146862745285034,
				1.6261696815490723,
				2.898109197616577
			],
			"min":[
				-1.2146862745285034,
				0.04753997176885605,
				-2.898109197616577
			],
			"type":"VEC3"
		},
		{
			"bufferView":33,
			"componentType":5126,
			"count":4646,
			"type":"VEC3"
		},
		{
			"bufferView":34,
			"componentType":5126,
			"count":4646,
			"type":"VEC2"
		},
		{
			"bufferView":35,
			"componentType":5126,
			"count":4646,
			"type":"VEC2"
		},
		{
			"bufferView":36,
			"componentType":5126,
			"count":4646,
			"type":"VEC2"
		},
		{
			"bufferView":37,
			"componentType":5123,
			"count":16794,
			"type":"SCALAR"
		}
	],
	"bufferViews":[
		{
			"buffer":0,
			"byteLength":63624,
			"byteOffset":0,
			"target":34962
		},
		{
			"buffer":0,
			"byteLength":63624,
			"byteOffset":63624,
			"target":34962
		},
		{
			"buffer":0,
			"byteLength":42416,
			"byteOffset":127248,
			"target":34962
		},
		{
			"buffer":0,
			"byteLength":42416,
			"byteOffset":169664,
			"target":34962
		},
		{
			"buffer":0,
			"byteLength":35328,
			"byteOffset":212080,
			"target":34963
		},
		{
			"buffer":0,
			"byteLength":9792,
			"byteOffset":247408,
			"target":34962
		},
		{
			"buffer":0,
			"byteLength":9792,
			"byteOffset":257200,
			"target":34962
		},
		{
			"buffer":0,
			"byteLength":6528,
			"byteOffset":266992,
			"target":34962
		},
		{
			"buffer":0,
			"byteLength":7800,
			"byteOffset":273520,
			"target":34963
		},
		{
			"buffer":0,
			"byteLength":565080,
			"byteOffset":281320,
			"target":34962
		},
		{
			"buffer":0,
			"byteLength":565080,
			"byteOffset":846400,
			"target":34962
		},
		{
			"buffer":0,
			"byteLength":376720,
			"byteOffset":1411480,
			"target":34962
		},
		{
			"buffer":0,
			"byteLength":290328,
			"byteOffset":1788200,
			"target":34963
		},
		{
			"buffer":0,
			"byteLength":208632,
			"byteOffset":2078528,
			"target":34962
		},
		{
			"buffer":0,
			"byteLength":208632,
			"byteOffset":2287160,
			"target":34962
		},
		{
			"buffer":0,
			"byteLength":139088,
			"byteOffset":2495792,
			"target":34962
		},
		{
			"buffer":0,
			"byteLength":129828,
			"byteOffset":2634880,
			"target":34963
		},
		{
			"buffer":0,
			"byteLength":29388,
			"byteOffset":2764708,
			"target":34962
		},
		{
			"buffer":0,
			"byteLength":29388,
			"byteOffset":2794096,
			"target":34962
		},
		{
			"buffer":0,
			"byteLength":19592,
			"byteOffset":2823484,
			"target":34962
		},
		{
			"buffer":0,
			"byteLength":19836,
			"byteOffset":2843076,
			"target":34963
		},
		{
			"buffer":0,
			"byteLength":356364,
			"byteOffset":2862912,
			"target":34962
		},
		{
			"buffer":0,
			"byteLength":356364,
			"byteOffset":3219276,
			"target":34962
		},
		{
			"buffer":0,
			"byteLength":237576,
			"byteOffset":3575640,
			"target":34962
		},
		{
			"buffer":0,
			"byteLength":237576,
			"byteOffset":3813216,
			"target":34962
		},
		{
			"buffer":0,
			"byteLength":184260,
			"byteOffset":4050792,
			"target":34963
		},
		{
			"buffer":0,
			"byteLength":41268,
			"byteOffset":4235052,
			"target":34962
		},
		{
			"buffer":0,
			"byteLength":41268,
			"byteOffset":4276320,
			"target":34962
		},
		{
			"buffer":0,
			"byteLength":27512,
			"byteOffset":4317588,
			"target":34962
		},
		{
			"buffer":0,
			"byteLength":27512,
			"byteOffset":4345100,
			"target":34962
		},
		{
			"buffer":0,
			"byteLength":27512,
			"byteOffset":4372612,
			"target":34962
		},
		{
			"buffer":0,
			"byteLength":21336,
			"byteOffset":4400124,
			"target":34963
		},
		{
			"buffer":0,
			"byteLength":55752,
			"byteOffset":4421460,
			"target":34962
		},
		{
			"buffer":0,
			"byteLength":55752,
			"byteOffset":4477212,
			"target":34962
		},
		{
			"buffer":0,
			"byteLength":37168,
			"byteOffset":4532964,
			"target":34962
		},
		{
			"buffer":0,
			"byteLength":37168,
			"byteOffset":4570132,
			"target":34962
		},
		{
			"buffer":0,
			"byteLength":37168,
			"byteOffset":4607300,
			"target":34962
		},
		{
			"buffer":0,
			"byteLength":33588,
			"byteOffset":4644468,
			"target":34963
		}
	],
	"samplers":[
		{
			"magFilter":9729,
			"minFilter":9987
		}
	],
	"buffers":[
		{
			"byteLength":4678056,
			"uri":"AtlanticExplorer.bin"
		}
	]
}
