<?xml version="1.0" encoding="UTF-8"?>
<svg id="_レイヤー_2" data-name="レイヤー 2" xmlns="http://www.w3.org/2000/svg" viewBox="0 0 33.56 44.77">
  <defs>
    <style>
      .cls-1 {
        fill: #5f524c;
      }

      .cls-1, .cls-2, .cls-3 {
        stroke-width: 0px;
      }

      .cls-2 {
        fill: #8a7065;
      }

      .cls-3 {
        fill: #b99b90;
      }
    </style>
  </defs>
  <g id="Layer_1" data-name="Layer 1">
    <g>
      <path class="cls-2" d="m21.37,23.67c.75-.79,1.54-1.47,2.65-1.91.24-.1,1.24.74,1.21,1.05-.23,1.8-.52,3.79-.71,5.6-.15,1.42-.23,2.84-.28,4.27-.03,1.06-.21,2.35-1.41,2.48-.51.05-.58-.6-.64-.99-.21-1.26-.45-2.53-.51-3.81-.06-1.35.09-2.71.09-4.06,0-.78-.34-1.85-.4-2.63Z"/>
      <path class="cls-2" d="m4.25,24.33c.9.29,1.26.64,1.12,1.41-.41,2.19,0,4.32.4,6.46,0,.93-.39,1.71-1.14,2.21-1.47.99-1.8,2.42-1.89,3.99-.06,1.14-.14,2.28-.26,3.41-.06.6-.18,1.2-.34,1.78-.12.44-.42.77-.96.7-.56-.08-.82-.43-.84-.96-.1-2.38-.53-4.76-.23-7.15.08-.6.1-1.21.16-1.81.09-1,.1-1,1.15-1.25.39-.09.77-.22,1.22-.35.24-2.88.13-5.81,1.61-8.44Z"/>
      <path class="cls-3" d="m3.94,24.66c-.34-.3-.63-.69-1.03-.88-1.22-.58-1.76-1.55-1.94-2.79-.25-1.67-.47-3.37.29-4.95.54-1.12,2.38-3.58,2.99-3.23-.17.27-.31.55-.52.79-.8.93-1.23,2.01-1.51,3.17-.43,1.76.09,3.18,1.6,4.21.51.35,1.07.64,1.63.89.55.25,7.66-4.14,11.04-5.62,2.9-1.27,4.65-3.52,5.79-6.29.38-.92.57-1.91.85-2.86.17-.09.33-.18.66-.36-.52,1.94-.94,3.71-1.46,5.44-.35,1.15-.14,2.11.72,3,.4-.27.77-.49,1.1-.76.33-.27.74-.54.88-.9.38-.96.78-1.95.89-2.95.2-1.73.17-3.49.27-5.24.03-.49.21-.96.27-1.45.03-.28-.05-.57-.08-.92.28-.16.2-.26-.22-.72,1.38-.57,3.19-1.28,4.58-1.82.36-.14.77-.15,1.16-.21.03.17.06.34.07.51.05.85.17.19,1.16.27.32,1.39-.77,2.65-1.31,3.52-.42.68-1.2,1.14-1.78,1.73-.58.59-1.13,1.22-1.66,1.85-.6.71-.72,1.54-.59,2.43.14.88.28,1.76.38,2.65.34,3.09.49,6.19.49,9.3,0,2.89.1,5.79.2,8.68.03.76-.22,1.41-.6,2.03-.32.54-.66.55-1.18.17-.69-.51-.83-1.26-.89-2-.12-1.46-.12-2.92-.23-4.38-.09-1.21-1.72-5.31-1.96-5.21-1.11.45-3,2.47-3.24,2.67-1.7,1.41-3.37,2.86-5.09,4.26-1.1.89-2.25,1.72-3.4,2.54-.66.47-.9,1.03-.91,1.82-.04,3.31-.15,6.63-.25,9.94-.01.39-.07.79-.2,1.15-.24.7-.95.85-1.45.31-.24-.25-.42-.6-.51-.93-.83-3.21-1.88-6.37-2.06-9.71-.03-.56-3.22-4.01-1.76-7.82.08-.78-.3-1.1-1.23-1.32Z"/>
      <path class="cls-1" d="m26.61,2.13c.42.46-.11,1.48-.14,1.76-.06.49-.24.96-.27,1.45-.1,1.75-.07,3.5-.27,5.24-.11,1.01-.51,1.99-.89,2.95-.14.36-.3.68-.63.95-.33.27-.87.75-1.36.7-1.26-.13-1.07-1.85-.72-3,.52-1.74.27-4.27.79-6.22-.33.18-.65.86-.82.95-.81.98-1.29,1.71-2.41,2.39-.4.24-.97.28-1.47.32-.66.05-1.27-.17-1.6-.75-.34-.61-.19-1.23.2-1.81.65-.99,1.52-1.77,2.59-2.26,1.95-.9,3.95-1.72,5.94-2.53.32-.13.71-.09,1.06-.13Z"/>
      <path class="cls-1" d="m33.16,1.3c-.98-.08-1.1-.03-1.38-.23-.14-.1-.16-.41-.19-.58.33-.26.24-.42.78-.47,1-.09,1.64.09.78,1.28Z"/>
      <path class="cls-1" d="m29.1,3.62c-.47.19-.77-.78-.35-.93.41-.15.8.76.35.93Z"/>
    </g>
  </g>
</svg>