<?xml version="1.0" encoding="UTF-8"?>
<svg id="_レイヤー_2" data-name="レイヤー 2" xmlns="http://www.w3.org/2000/svg" viewBox="0 0 19.1 22.73">
  <defs>
    <style>
      .cls-1 {
        fill: #f9e0d7;
      }

      .cls-1, .cls-2 {
        stroke-width: 0px;
      }

      .cls-2 {
        fill: #b99b90;
      }
    </style>
  </defs>
  <g id="Layer_1" data-name="Layer 1">
    <g>
      <path class="cls-1" d="m2.97,14.51c-.37-.08-.75-.16-1.12-.25-.67-.16-1.14-.56-1.46-1.18-.54-1.06-.45-2.14-.1-3.21.19-.58.69-.89,1.21-1.11.4-.17.51-.41.49-.83-.07-1.22.36-2.26,1.14-3.19.89-1.05,1.85-2,3.12-2.6.37-.17.65-.58.93-.91.15-.17.23-.42.36-.61.52-.79.92-.82,1.49-.1.4.52.88.85,1.54.95.93.15,1.86.31,2.79.51,1.54.33,2.61,1.58,2.69,3.12.02.41-.07.82-.11,1.27.18.07.33.14.5.18,1.91.45,2.78,2.54,2.67,3.94-.05.71-.04,1.4-.36,2.09-.61,1.32-1.65,1.98-3.01,2.22-.43.08-.88.09-1.32.13-.49-.1-1.04-.09-1.45-.32-.6-.34-1.09-.21-1.66.02-2.04.82-3.95.7-5.62-.88-.04-.04-.07-.12-.12-.13-.21-.04-.46-.15-.62-.08-.67.29-1.31.63-1.96.96Z"/>
      <path class="cls-2" d="m2.97,14.51c.65-.32,1.29-.67,1.96-.96.17-.07.41.04.62.08.05,0,.08.09.12.13,1.67,1.58,3.58,1.71,5.62.88.57-.23,1.06-.36,1.66-.02.42.23.96.22,1.45.32.02.86.07,1.72.05,2.58-.03,1.04-.07,2.08-.2,3.11-.07.56-.32,1.08-1.01,1.2-1.88.33-3.72.96-5.66.89-.21,0-.41-.02-.62-.02-.77,0-1.19-.41-1.38-1.13-.15-.57-.35-1.14-.49-1.71-.42-1.75-1.12-3.38-1.99-4.94-.07-.13-.1-.28-.14-.42Z"/>
    </g>
  </g>
</svg>