<?xml version="1.0" encoding="UTF-8"?>
<svg id="_レイヤー_2" data-name="レイヤー 2" xmlns="http://www.w3.org/2000/svg" viewBox="0 0 41.49 75.55">
  <defs>
    <style>
      .cls-1 {
        fill: #62615d;
      }

      .cls-1, .cls-2, .cls-3 {
        stroke-width: 0px;
      }

      .cls-2 {
        fill: #c0cbce;
      }

      .cls-3 {
        fill: #a09382;
      }
    </style>
  </defs>
  <g id="Layer_1" data-name="Layer 1">
    <g>
      <path class="cls-2" d="m30.02,51.35c.91.6.18,1.59.55,2.21,1.47-.06,2.93-.19,4.38-.14,1.67.06,3.04.93,3.92,2.26.71,1.06.58,2.38-.07,3.5-1.59,2.72-3.75,4.55-7.15,4.28-.22-.02-.45.02-.67.04-.05,0-.11.03-.43.11-.22.98-.64,2.09-.68,3.22-.07,2.07-.85,3.76-2.22,5.24-.18.19-.44.32-.69.41-3.39,1.29-6.88,2.21-10.43,2.93-.33.07-.66.11-.99.11-3.35.01-6.71.07-10.05-.02-.97-.02-1.96-.38-2.9-.69-1.26-.41-1.85-1.4-1.94-2.67-.15-2.05-.27-4.11-.35-6.17C.16,62.93.02,59.86,0,56.8c0-.98.32-1.96.5-2.93.5.45,1.02.87,1.49,1.35,1.04,1.09,2.31,1.79,3.74,2.13,2.68.64,5.38.91,8.12.27,2.34-.54,4.69-1.05,7.04-1.54,3.49-.73,6.83-1.73,9.14-4.73Zm.5,4.23c0,1.88-.04,3.38.03,4.87.02.34.4.79.73.95,1.61.76,4.19-.87,4.53-2.81.23-1.3-.28-2.21-1.58-2.51-1.12-.25-2.28-.32-3.71-.51Z"/>
      <path class="cls-2" d="m20.98,33.14c1.52-3.17,3.03-6.35,4.61-9.5,1.45-2.89,2.97-5.75,4.46-8.62.65-1.24,1.33-2.45,1.96-3.7.96-1.89,1.85-3.81,2.83-5.69.69-1.33,1.42-2.65,2.24-3.91.35-.53.95-.94,1.51-1.3,1.31-.84,2.47-.44,2.79,1.07.16.77.13,1.72-.18,2.43-.94,2.14-1.97,4.25-3.11,6.29-1.77,3.16-3.66,6.27-5.51,9.38-1.94,3.26-3.86,6.53-5.89,9.73-.92,1.45-2.06,2.77-3.1,4.14-.1.13-4.29,3.83-2.61-.34Z"/>
      <path class="cls-1" d="m30.02,51.35c-2.31,3.01-5.65,4.01-9.14,4.73-2.35.49-4.7,1-7.04,1.54-2.74.63-5.44.37-8.12-.27-1.43-.34-2.7-1.04-3.74-2.13-.46-.48-.99-.9-1.49-1.35-.7-1.77-.24-3.43.63-4.98,1.83-3.24,4.21-5.94,7.88-7.14,1.25-.41,2.6-.75,3.9-.77,3.24-.03,6.48.09,9.71.28,1.87.11,3.55.91,5.12,1.94,2.78,1.83,3.69,4.62,2.47,7.69-.06.16-.12.31-.18.47Zm-28.41,1.5c.5,1.4,1.77,1.8,2.97,2.12,1.39.38,2.84.63,4.27.7,5.56.28,11.03-.19,16.26-2.27.85-.34,1.58-.97,2.36-1.46,3.11-2.72,2.07-5.92-.86-7.67-1.51-.91-3.1-1.6-4.86-1.69-3.01-.16-6.03-.34-9.04-.29-5.74.1-9.57,3.95-11.34,8.7-.22.59-.45,1.31.23,1.84Z"/>
      <path class="cls-3" d="m27.48,51.95c-.78.49-1.51,1.12-2.36,1.46-5.23,2.08-10.71,2.55-16.26,2.27-1.43-.07-2.88-.33-4.27-.7-1.2-.33-2.48-.73-2.97-2.12.04-1.14.53-2.1,1.5-2.65,1.93-1.1,3.89-2.16,5.9-3.11.78-.37,1.72-.51,2.59-.53,2.18-.06,4.36-.06,6.53.05,2.71.13,5.28.74,7.57,2.33,1.1.76,1.74,1.68,1.77,3.02Z"/>
    </g>
  </g>
</svg>