<?xml version="1.0" encoding="UTF-8"?>
<svg id="_レイヤー_2" data-name="レイヤー 2" xmlns="http://www.w3.org/2000/svg" viewBox="0 0 32.16 42.87">
  <defs>
    <style>
      .cls-1 {
        fill: #867b6d;
      }

      .cls-1, .cls-2, .cls-3 {
        stroke-width: 0px;
      }

      .cls-2 {
        fill: #d3c8c2;
      }

      .cls-3 {
        fill: #85a1a5;
      }
    </style>
  </defs>
  <g id="Layer_1" data-name="Layer 1">
    <g>
      <path class="cls-2" d="m12.46,6.53c1.12-.42,2.25-.85,3.37-1.26.5-.18,1.01-.31,1.51-.46.8-.24,1.43.04,1.88.7.65.95,1.31,1.91,1.9,2.89,2.38,3.95,4.82,7.88,7.08,11.9.96,1.7,3.17,4.55,3.87,6.39.51,1.32-3.49,2.76-3.82,2.89-3.21,1.28-6.98,4.74-10.18,6.06-2.09.86-4.14,1.79-6.23,2.66-1.51.63-1.75.53-2.49-.9-.68-1.33-2.81-8.64-3.24-9.95-.79-2.41-3.38-9.48-3.8-10.86-.18-.59-1.72-4.14-1.84-4.21-.86-.5,3.17-1.85,4.02-2.21.32.21.64.43,1.18.78.05-.72.07-1.12.1-1.53,1.82-.75,3.63-1.5,5.45-2.24,1.07.51,1.12.49,1.22-.65Z"/>
      <path class="cls-1" d="m.72,12.08c.23.03,4.62,12.96,5.41,15.37.43,1.31,2.66,8.42,3.35,9.74.73,1.42.98,1.52,2.49.9,2.08-.87,5.71-2.97,7.8-3.83,3.2-1.31,5.28-3.4,8.49-4.68.34-.13,3.28-2.45,3.82-2.59,0,.56.08,1.27.08,1.68-.12.15-2.86,2.31-3.01,2.42-3.54,2.41-7.01,4.93-10.65,7.17-2.32,1.42-4.91,2.42-7.37,3.61-.52.25-1.02.53-1.54.78-.95.44-1.34.25-1.77-.73-.33-.75-.81-1.43-1.08-2.19-.83-2.35-1.61-4.73-2.39-7.1-.25-.77-1.83-4.11-1.94-5.14-.2-1.97-.52-3.9-1.21-5.76C.2,19.01.15,16.16.07,13.32c-.03-1.25-.34-.89.64-1.24Z"/>
      <path class="cls-3" d="m5.79,9.42c-.03.41.55,1.21-.1,1.53-.58.29-.86-.57-1.18-.78-.27-.76-.44-1.59-.84-2.27-1.04-1.78-1.09-3.67-.69-5.59.23-1.09,1.24-1.59,2.15-1.96,1.51-.61,2.87-.48,4.22.76,1.65,1.51,2.44,3.4,3.11,5.41-.1,1.14-.15,1.17-1.22.65-.21-.62-.36-1.28-.65-1.86-.36-.73-.92-1.36-1.23-2.1-.58-1.35-1.62-1.8-2.98-1.8-1.28,0-1.57.2-1.82,1.52-.43,2.32.12,4.46,1.23,6.49Z"/>
    </g>
  </g>
</svg>