<?xml version="1.0" encoding="UTF-8"?>
<svg id="_レイヤー_2" data-name="レイヤー 2" xmlns="http://www.w3.org/2000/svg" viewBox="0 0 12.8 48.72">
  <defs>
    <style>
      .cls-1 {
        fill: #62615d;
      }

      .cls-1, .cls-2, .cls-3 {
        stroke-width: 0px;
      }

      .cls-2 {
        fill: #403c3a;
      }

      .cls-3 {
        fill: #c0cbce;
      }
    </style>
  </defs>
  <g id="Layer_1" data-name="Layer 1">
    <g>
      <path class="cls-2" d="m6.49,35.69s.03-.06.05-.1q.49-1.63,1.29-.12c.12.61.31,1.23.35,1.82.18,2.87.33,5.73.46,8.59.03.62-.01,1.23-.05,1.82-.03.54-.09,1.21-.41.97-.16-.12-.36-.77-.43-1.21-.19-1.32-.34-2.65-.48-3.98-.27-2.6-.52-5.19-.78-7.79Z"/>
      <path class="cls-3" d="m4.48,36.78c-3.68-.57-3.92-1.69-4.24-4.56-.45-4-.19-7.98.26-11.95.42-3.69.85-7.38,1.47-11.04.31-1.84,1.02-3.62,1.57-5.42.2-.67.51-1.32.67-2,.23-.98.8-1.54,1.88-1.82.26.66.55,1.28.77,1.93.72,2.13,1.43,4.27,2.13,6.41.13.4.26.81.3,1.23.14,1.81.87,3.45,1.4,5.16.34,1.12.71,2.25.88,3.4.45,3.03.81,6.08,1.17,9.12.24,2-.09,3.96-.7,5.84-.12,3.71-5.2,2.86-6.34,4.28-.03.03-.76-.53-1.21-.6Zm3.23-18.85c-.8,1.3-.36,2.51-.24,3.68.05.53.05,1.13.69,1.39.82-1.39.66-3.7-.45-5.07Zm.43,10.05c-.66,1.21-.4,3.5.49,4.27.81-1.4.59-3.3-.49-4.27Zm-3.38,5.76c.61-.78.72-1.42.47-2.71-.1-.51-.16-1.05-.85-1.09-.81,1.1-.61,2.95.38,3.8Zm-.16-21.31c-.21,1.41-.47,2.82.4,4.27.68-1.26.52-3.24-.4-4.27Zm-1.86,17.83c.56-1.21.44-2.26.19-3.3-.04-.18-.39-.35-.62-.39-.1-.02-.38.32-.37.49.07,1.05-.02,2.15.81,3.2ZM6.78,11.41c.22-2.55,0-3.45-1-4.01-.2,1.49.36,2.74,1,4.01Zm-2.13,13.75c.67-1.61.54-2.91-.4-3.67-.31,1.28-.32,2.41.4,3.67Z"/>
      <path class="cls-1" d="m7.71,17.93c1.11,1.37,1.26,3.68.45,5.07-.65-.26-.64-.86-.69-1.39-.12-1.18-.56-2.39.24-3.68Z"/>
      <path class="cls-1" d="m8.14,27.97c1.08.97,1.29,2.87.49,4.27-.89-.77-1.15-3.06-.49-4.27Z"/>
      <path class="cls-1" d="m4.76,33.74c-1-.84-1.19-2.7-.38-3.8.69.04.76.57.85,1.09.25,1.3.14,1.93-.47,2.71Z"/>
      <path class="cls-1" d="m4.6,12.43c.92,1.02,1.08,3.01.4,4.27-.87-1.45-.61-2.86-.4-4.27Z"/>
      <path class="cls-1" d="m2.73,30.26c-.83-1.05-.73-2.15-.81-3.2-.01-.16.27-.5.37-.49.23.03.58.21.62.39.25,1.04.37,2.09-.19,3.3Z"/>
      <path class="cls-1" d="m6.78,11.41c-.64-1.27-1.2-2.51-1-4.01.99.55,1.22,1.46,1,4.01Z"/>
      <path class="cls-1" d="m4.65,25.16c-.72-1.26-.7-2.39-.4-3.67.93.77,1.06,2.07.4,3.67Z"/>
    </g>
  </g>
</svg>