{
  "asset": {
    "generator": "Khronos glTF Blender I/O v1.6.16",
    "version": "2.0"
  },
  "scene": 0,
  "scenes": [
    {
      "name": "Scene",
      "nodes": [
        0
      ]
    }
  ],
  "nodes": [
    {
      "mesh": 0,
      "name": "sphere_gltf"
    }
  ],
  "materials": [
    {
      "doubleSided": true,
      "name": "rocks_ground_06",
      "normalTexture": {
        "index": 0
      },
      "pbrMetallicRoughness": {
        "baseColorTexture": {
          "index": 1
        },
        "metallicFactor": 0,
        "metallicRoughnessTexture": {
          "index": 2
        }
      }
    }
  ],
  "meshes": [
    {
      "name": "Sphere.001",
      "primitives": [
        {
          "attributes": {
            "POSITION": 0,
            "NORMAL": 1,
            "TEXCOORD_0": 2
          },
          "indices": 3,
          "material": 0
        }
      ]
    }
  ],
  "textures": [
    {
      "sampler": 0,
      "source": 0
    },
    {
      "sampler": 0,
      "source": 1
    },
    {
      "sampler": 0,
      "source": 2
    }
  ],
  "images": [
    {
      "mimeType": "image/jpeg",
      "name": "rocks_ground_06_nor_gl_4k",
      "uri": "textures/rocks_ground_06_nor_gl_4k.jpg"
    },
    {
      "mimeType": "image/jpeg",
      "name": "rocks_ground_06_diff_4k",
      "uri": "textures/rocks_ground_06_diff_4k.jpg"
    },
    {
      "mimeType": "image/jpeg",
      "name": "rocks_ground_06_rough_4k",
      "uri": "textures/rocks_ground_06_rough_4k.jpg"
    }
  ],
  "accessors": [
    {
      "bufferView": 0,
      "componentType": 5126,
      "count": 53889,
      "max": [
        1.4647771120071411,
        1.5949034690856934,
        1.4723116159439087
      ],
      "min": [
        -1.4648005962371826,
        -1.586661696434021,
        -1.4723066091537476
      ],
      "type": "VEC3"
    },
    {
      "bufferView": 1,
      "componentType": 5126,
      "count": 53889,
      "type": "VEC3"
    },
    {
      "bufferView": 2,
      "componentType": 5126,
      "count": 53889,
      "type": "VEC2"
    },
    {
      "bufferView": 3,
      "componentType": 5123,
      "count": 322170,
      "type": "SCALAR"
    }
  ],
  "bufferViews": [
    {
      "buffer": 0,
      "byteLength": 646668,
      "byteOffset": 0
    },
    {
      "buffer": 0,
      "byteLength": 646668,
      "byteOffset": 646668
    },
    {
      "buffer": 0,
      "byteLength": 431112,
      "byteOffset": 1293336
    },
    {
      "buffer": 0,
      "byteLength": 644340,
      "byteOffset": 1724448
    }
  ],
  "samplers": [
    {
      "magFilter": 9729,
      "minFilter": 9987
    }
  ],
  "buffers": [
    {
      "byteLength": 2368788,
      "uri": "rocks_ground_06.bin"
    }
  ]
}